# xmcd
#
# Track frame offsets: 
#        150
#        11994
#        32875
#        50343
#        73789
#        97483
#        112944
#        127286
#        145653
#        170526
#
# Disc length: 2582 seconds
#
# Revision: 9
# Processed by: cddbd v1.5PL3 Copyright (c) Steve Scherf et al.
# Submitted via: ExactAudioCopy v0.95a5
#
DISCID=970a140a
DTITLE=Sober - 好极了！？
DYEAR=1997
DGENRE=Rock
TTITLE0=好极了！？
TTITLE1=记忆散落了 没有声音
TTITLE2=永远的一天 (LUCIA)
TTITLE3=十月
TTITLE4=黑夜在跳动
TTITLE5=嘿 我爱你！
TTITLE6=收音机人
TTITLE7=旋转的房子
TTITLE8=口香糖生活
TTITLE9=走着入睡
EXTD=YEAR: 2000
EXTT0=
EXTT1=
EXTT2=
EXTT3=
EXTT4=
EXTT5=
EXTT6=
EXTT7=
EXTT8=
EXTT9=
PLAYORDER=
